<svg width="42" height="42" viewBox="0 0 42 42" fill="none" xmlns="http://www.w3.org/2000/svg">
<g clip-path="url(#clip0_995_88)">
<path d="M18.1809 29.5924L18.4993 27.5694L17.7899 27.553H14.4023L16.7565 12.6261C16.7641 12.5806 16.7873 12.5393 16.8223 12.5092C16.8572 12.4792 16.9017 12.4628 16.9477 12.4629H22.6596C24.5558 12.4629 25.8644 12.8575 26.5477 13.6364C26.8679 14.0017 27.0719 14.3835 27.1706 14.8036C27.2741 15.2445 27.2759 15.7712 27.1749 16.4137L27.1676 16.4606V16.8722L27.4878 17.0537C27.7576 17.1968 27.9719 17.3606 28.1364 17.5482C28.4104 17.8606 28.5876 18.2576 28.6625 18.7283C28.7398 19.2124 28.7142 19.7884 28.5876 20.4406C28.4414 21.1908 28.2052 21.8442 27.8861 22.3789C27.5926 22.8715 27.2187 23.2801 26.7748 23.5967C26.3509 23.8975 25.8474 24.1259 25.278 24.2721C24.7263 24.4158 24.0973 24.4882 23.4073 24.4882H22.9628C22.6445 24.4889 22.3367 24.6021 22.0939 24.8079C21.8509 25.0174 21.6901 25.3036 21.6408 25.6166L21.6073 25.7987L21.0447 29.364L21.0191 29.4949C21.0124 29.5364 21.0008 29.5571 20.9838 29.571C20.9673 29.5846 20.9467 29.5921 20.9253 29.5924H18.1809Z" fill="#253B80"/>
<path d="M27.0761 16.4814C27.0585 16.5934 27.039 16.7051 27.0176 16.8164C26.2643 20.6838 23.6873 22.0197 20.396 22.0197H18.7202C18.3177 22.0197 17.9785 22.312 17.9158 22.7091L17.0578 28.1505L16.8148 29.693C16.7741 29.9536 16.975 30.1887 17.238 30.1887H20.2103C20.5622 30.1887 20.8612 29.9329 20.9167 29.5858L20.9459 29.4348L21.5055 25.8835L21.5414 25.6886C21.5678 25.5202 21.6535 25.3668 21.783 25.2561C21.9126 25.1453 22.0774 25.0845 22.2478 25.0845H22.6923C25.572 25.0845 27.8263 23.9154 28.4852 20.5321C28.7604 19.1188 28.6179 17.9386 27.8896 17.1087C27.6692 16.8583 27.3958 16.6507 27.0761 16.4814Z" fill="#179BD7"/>
<path d="M26.2883 16.1668C26.1707 16.1328 26.0521 16.1023 25.9327 16.0755C25.8077 16.0482 25.6821 16.0245 25.5558 16.0043C25.1039 15.9312 24.6089 15.8965 24.0785 15.8965H19.6015C19.4312 15.8963 19.2663 15.9572 19.1369 16.0679C19.0075 16.1787 18.9219 16.3322 18.8958 16.5005L17.9434 22.5327L17.916 22.7087C17.9787 22.3117 18.3179 22.0194 18.7204 22.0194H20.3962C23.6875 22.0194 26.2645 20.6827 27.0178 16.816C27.0404 16.7015 27.0592 16.5901 27.0763 16.4811C26.8857 16.38 26.6793 16.2935 26.457 16.2199C26.401 16.2013 26.3448 16.1836 26.2883 16.1668Z" fill="#222D65"/>
<path d="M18.8954 16.5007C18.9131 16.3862 18.9586 16.2777 19.0278 16.1847C19.097 16.0918 19.1878 16.0171 19.2924 15.9673C19.3888 15.9211 19.4943 15.8971 19.6011 15.8972H24.0781C24.6085 15.8972 25.1035 15.9319 25.5554 16.005C25.6845 16.0257 25.8099 16.0495 25.9323 16.0763C26.0541 16.1037 26.1728 16.1341 26.2879 16.1676C26.3452 16.1847 26.4018 16.2023 26.4572 16.22C26.6794 16.2937 26.8859 16.3807 27.0765 16.4812C27.3006 15.0521 27.0746 14.0789 26.3019 13.1978C25.45 12.2277 23.9124 11.8125 21.945 11.8125H16.2331C15.8312 11.8125 15.4883 12.1048 15.4262 12.5024L13.0471 27.5828C13.0002 27.8812 13.2304 28.1503 13.5312 28.1503H17.0576L17.943 22.5329L18.8954 16.5007Z" fill="#253B80"/>
</g>
<defs>
<clipPath id="clip0_995_88">
<rect width="15.76" height="20" fill="white" transform="translate(13 11)"/>
</clipPath>
</defs>
</svg>
