<svg width="16" height="16" viewBox="0 0 16 16" fill="none" xmlns="http://www.w3.org/2000/svg">
<path d="M13.8105 1.91396C14.4707 1.83709 15.0686 2.30947 15.1455 2.96962L15.957 9.94618C16.0338 10.6062 15.5614 11.2033 14.9014 11.2802L14.4814 11.328V12.8915C14.4814 13.5559 13.9427 14.0944 13.2783 14.0946H1.2373C0.572966 14.0944 0.0342662 13.5559 0.0341797 12.8915V5.86806C0.0341855 5.20362 0.572917 4.66516 1.2373 4.66493H13.2783C13.9427 4.66512 14.4814 5.2036 14.4814 5.86806V9.63076C14.4813 9.74106 14.3916 9.82997 14.2812 9.82997C14.1709 9.82994 14.0812 9.74104 14.0811 9.63076V5.86806C14.081 5.42451 13.7218 5.06454 13.2783 5.06435H1.2373C0.793831 5.06457 0.434576 5.42453 0.43457 5.86806V12.8915C0.434657 13.335 0.79388 13.694 1.2373 13.6942H13.2783C13.7218 13.694 14.081 13.335 14.0811 12.8915V10.6337C14.0811 10.5233 14.1709 10.4335 14.2812 10.4335C14.3917 10.4335 14.4814 10.5233 14.4814 10.6337V10.9267L14.8555 10.8827C15.296 10.8312 15.6118 10.4326 15.5605 9.99208L14.748 3.01552C14.6966 2.57496 14.297 2.25914 13.8564 2.31044L1.89746 3.704C1.74352 3.72171 1.59856 3.78277 1.48047 3.87978L1.34277 4.01747C1.27046 4.07538 1.16514 4.07668 1.09082 4.01552C1.00569 3.94514 0.993101 3.81843 1.06348 3.73329C1.2609 3.49453 1.54379 3.34201 1.85156 3.30654L13.8105 1.91396ZM6.75586 11.9384C6.86623 11.9384 6.95591 12.0282 6.95605 12.1386C6.95605 12.249 6.86632 12.3388 6.75586 12.3388H1.73926C1.62887 12.3387 1.53906 12.249 1.53906 12.1386C1.5392 12.0283 1.62895 11.9384 1.73926 11.9384H6.75586ZM3.75684 10.6845C3.86232 10.69 3.94629 10.7778 3.94629 10.8847C3.94626 10.9915 3.86228 11.0783 3.75684 11.0839L3.74609 11.0849H1.73926C1.62888 11.0848 1.53909 10.995 1.53906 10.8847C1.53906 10.7743 1.62887 10.6845 1.73926 10.6845H3.75684ZM6.75586 10.6845C6.86632 10.6845 6.95605 10.7742 6.95605 10.8847C6.95603 10.9951 6.8663 11.0849 6.75586 11.0849H4.74902C4.63878 11.0846 4.54983 10.995 4.5498 10.8847C4.54981 10.7743 4.63877 10.6847 4.74902 10.6845H6.75586ZM9.7666 10.6845C9.87687 10.6847 9.96582 10.7743 9.96582 10.8847C9.96579 10.995 9.87686 11.0846 9.7666 11.0849H7.75977C7.64933 11.0849 7.5596 10.9951 7.55957 10.8847C7.55957 10.7742 7.64931 10.6845 7.75977 10.6845H9.7666ZM12.7764 10.6845C12.8868 10.6845 12.9766 10.7742 12.9766 10.8847C12.9765 10.9951 12.8868 11.0848 12.7764 11.0849H10.7695C10.6591 11.0848 10.5694 10.9951 10.5693 10.8847C10.5693 10.7742 10.6591 10.6845 10.7695 10.6845H12.7764ZM3.74609 7.42372C4.1336 7.42373 4.44824 7.73832 4.44824 8.12587V9.1288C4.44817 9.5163 4.13361 9.82997 3.74609 9.82997H2.24121C1.85372 9.82997 1.5391 9.51633 1.53906 9.1288V8.12587C1.53906 7.73836 1.85365 7.42372 2.24121 7.42372H3.74609ZM2.24121 7.82411C2.07458 7.82411 1.93945 7.95926 1.93945 8.12587V9.1288C1.93949 9.2954 2.07462 9.43056 2.24121 9.43056H3.74609C3.90742 9.43056 4.03967 9.3038 4.04785 9.14443V8.12587C4.04785 7.95925 3.9127 7.82412 3.74609 7.82411H2.24121ZM11.9189 6.4413C12.0177 6.39223 12.1372 6.4325 12.1865 6.53115C12.3688 6.89739 12.4746 7.31031 12.4746 7.74892C12.4746 8.18759 12.3688 8.60038 12.1865 8.96669C12.1373 9.06559 12.0178 9.10573 11.9189 9.05654C11.8201 9.0073 11.7799 8.88782 11.8291 8.78896C11.9852 8.47517 12.0742 8.12271 12.0742 7.74892C12.0742 7.37537 11.9851 7.02344 11.8291 6.70986C11.7799 6.61097 11.8201 6.49051 11.9189 6.4413ZM3.25488 8.42763C3.36039 8.43307 3.44421 8.52001 3.44434 8.62685C3.44433 8.7338 3.36048 8.82161 3.25488 8.82704H2.74316C2.63271 8.82704 2.54297 8.7373 2.54297 8.62685C2.5431 8.5165 2.63279 8.42666 2.74316 8.42665H3.24414L3.25488 8.42763ZM11.0186 6.89443C11.1141 6.84671 11.2301 6.88266 11.2822 6.97451L11.2979 7.00576C11.4057 7.22904 11.4716 7.47983 11.4717 7.74892C11.4717 8.02685 11.4013 8.2858 11.2871 8.51454L11.2822 8.52333C11.2302 8.61544 11.1143 8.65217 11.0186 8.60439C10.9199 8.555 10.8804 8.43459 10.9297 8.33583L10.9375 8.31923C11.0218 8.14464 11.0713 7.95213 11.0713 7.74892C11.0713 7.54581 11.0218 7.3541 10.9375 7.17958L10.9297 7.16298L10.9248 7.15322C10.8826 7.05645 10.9232 6.9423 11.0186 6.89443ZM10.1211 7.34658C10.2195 7.29646 10.3404 7.3352 10.3906 7.43349C10.4375 7.52557 10.4677 7.63221 10.4678 7.74892C10.4678 7.8656 10.4375 7.97224 10.3906 8.06435C10.3405 8.16277 10.2195 8.20237 10.1211 8.15224C10.0229 8.10201 9.98409 7.98103 10.0342 7.88271C10.0561 7.83962 10.0684 7.79482 10.0684 7.74892C10.0683 7.70299 10.0561 7.65822 10.0342 7.61513C9.98423 7.5169 10.0231 7.39684 10.1211 7.34658Z" fill="#363636"/>
</svg>
