<svg width="37" height="37" viewBox="0 0 37 37" fill="none" xmlns="http://www.w3.org/2000/svg">
<g clip-path="url(#clip0_195_1379)">
<path d="M26.4165 36.625H26.4453C26.4362 36.5983 26.4263 36.5969 26.4165 36.625ZM33.3008 23.9688H26.5979V36.625H33.3008C33.883 36.625 34.3555 36.1525 34.3555 35.5703V25.0234C34.3555 24.4412 33.883 23.9688 33.3008 23.9688ZM2.64453 22.9141V35.5703C2.64453 36.1525 3.11703 36.625 3.69922 36.625H10.4021V21.8594H3.69922C3.11703 21.8594 2.64453 22.3319 2.64453 22.9141ZM10.5603 36.625H10.5835C10.5751 36.6025 10.5673 36.6032 10.5603 36.625ZM23.4336 17.5703H13.5664C12.9839 17.5703 12.5117 18.0425 12.5117 18.625V36.625H24.4883V18.625C24.4883 18.0425 24.0161 17.5703 23.4336 17.5703ZM19.5547 27.0625C19.5547 27.645 19.0825 28.1172 18.5 28.1172C17.9175 28.1172 17.4453 27.645 17.4453 27.0625V23.8984C16.8628 23.8984 16.3906 23.4262 16.3906 22.8438C16.3906 22.2613 16.8628 21.7891 17.4453 21.7891H18.5C19.0825 21.7891 19.5547 22.2613 19.5547 22.8438V27.0625Z" fill="#017F00"/>
<path d="M18.4648 2.73438C19.0473 2.73438 19.5195 2.26218 19.5195 1.67969C19.5195 1.0972 19.0473 0.625 18.4648 0.625C17.8824 0.625 17.4102 1.0972 17.4102 1.67969C17.4102 2.26218 17.8824 2.73438 18.4648 2.73438Z" fill="#017F00"/>
<path d="M25.4961 4.49219C26.0786 4.49219 26.5508 4.01999 26.5508 3.4375C26.5508 2.85501 26.0786 2.38281 25.4961 2.38281C24.9136 2.38281 24.4414 2.85501 24.4414 3.4375C24.4414 4.01999 24.9136 4.49219 25.4961 4.49219Z" fill="#017F00"/>
<path d="M11.4336 4.49219C12.0161 4.49219 12.4883 4.01999 12.4883 3.4375C12.4883 2.85501 12.0161 2.38281 11.4336 2.38281C10.8511 2.38281 10.3789 2.85501 10.3789 3.4375C10.3789 4.01999 10.8511 4.49219 11.4336 4.49219Z" fill="#017F00"/>
<path d="M24.1951 5.01483L21.6284 6.60157L18.9615 3.93469C18.6869 3.66012 18.2417 3.66012 17.9671 3.93469L15.3003 6.60157L12.7335 5.01483C12.2225 4.69898 11.5764 5.12789 11.6691 5.72147L13.098 14.8664C13.1239 15.032 13.2081 15.183 13.3355 15.292C13.4629 15.401 13.625 15.461 13.7927 15.4609H23.136C23.3036 15.461 23.4658 15.401 23.5932 15.292C23.7205 15.183 23.8048 15.032 23.8306 14.8664L25.2595 5.72147C25.3523 5.12796 24.7061 4.69898 24.1951 5.01483Z" fill="#017F00"/>
</g>
<defs>
<clipPath id="clip0_195_1379">
<rect width="36" height="36" fill="white" transform="translate(0.5 0.625)"/>
</clipPath>
</defs>
</svg>
