<svg width="24" height="24" viewBox="0 0 24 24" fill="none" xmlns="http://www.w3.org/2000/svg">
<path d="M5.9427 2.48462C4.53783 2.48462 3.36309 3.51753 3.13296 4.85952C2.47059 4.97481 1.86992 5.31952 1.43619 5.83324C1.00247 6.34696 0.763351 6.99693 0.760743 7.66925C0.760742 7.67014 0.760742 7.67103 0.760743 7.67193V16.0102C0.760743 17.0578 1.33206 18.0051 2.21913 18.5015C2.278 18.5336 2.35293 18.7021 2.35293 18.6192L2.34222 20.6261C2.34089 20.9914 2.58707 21.3259 2.88812 21.4517C3.0514 21.5158 3.22964 21.5319 3.40176 21.498C3.57388 21.4641 3.73271 21.3816 3.85948 21.2603L6.10192 19.0286C6.20649 18.9236 6.34845 18.8644 6.49662 18.864H18.0553C19.4602 18.864 20.6336 17.8311 20.8651 16.4891C21.5278 16.3742 22.129 16.0296 22.5632 15.5159C22.9974 15.0022 23.237 14.352 23.24 13.6794V5.33851C23.2371 4.58248 22.9356 3.85822 22.401 3.32362C21.8664 2.78902 21.1421 2.48744 20.3861 2.48462H5.9427ZM5.9427 3.90153H20.3861C21.1875 3.90153 21.8231 4.53573 21.8231 5.33851V13.6794C21.8231 14.2976 21.4471 14.814 20.9092 15.0201V7.67193C20.9064 6.91542 20.6047 6.19068 20.0699 5.65562C19.5351 5.12055 18.8105 4.81853 18.054 4.81536H4.60205C4.70603 4.54475 4.89007 4.31229 5.12962 4.14901C5.36916 3.98572 5.65281 3.89939 5.9427 3.90153ZM5.15865 10.9299C5.31413 10.929 5.46826 10.9589 5.6122 11.0177C5.75613 11.0766 5.88705 11.1634 5.99743 11.273C6.10781 11.3826 6.19548 11.513 6.25543 11.6566C6.31538 11.8002 6.34642 11.9543 6.34677 12.11C6.34712 12.2661 6.3166 12.4207 6.25697 12.565C6.19734 12.7092 6.10977 12.8402 5.99932 12.9504C5.88887 13.0606 5.75772 13.1478 5.61344 13.2071C5.46915 13.2663 5.31458 13.2963 5.15865 13.2954C5.00339 13.2952 4.84969 13.2644 4.70633 13.2047C4.56297 13.1451 4.43277 13.0577 4.32317 12.9476C4.21357 12.8375 4.12673 12.7068 4.0676 12.5631C4.00846 12.4194 3.97821 12.2654 3.97856 12.11C3.97927 11.797 4.10387 11.497 4.32506 11.2758C4.54626 11.0546 4.84601 10.9302 5.15865 10.9299ZM10.8316 10.9299C10.9869 10.9294 11.1407 10.9595 11.2844 11.0185C11.428 11.0775 11.5586 11.1643 11.6687 11.2739C11.7788 11.3835 11.8662 11.5138 11.926 11.6572C11.9858 11.8007 12.0167 11.9545 12.0171 12.11C12.0174 12.266 11.987 12.4205 11.9274 12.5647C11.8679 12.7088 11.7804 12.8398 11.6701 12.9499C11.5598 13.0601 11.4288 13.1474 11.2847 13.2067C11.1405 13.266 10.9861 13.2961 10.8303 13.2954C10.675 13.2952 10.5213 13.2644 10.378 13.2047C10.2346 13.1451 10.1044 13.0577 9.99483 12.9476C9.88523 12.8375 9.79838 12.7068 9.73925 12.5631C9.68012 12.4194 9.64986 12.2654 9.65021 12.11C9.65092 11.797 9.77552 11.497 9.99672 11.2758C10.2179 11.0546 10.5177 10.9302 10.8303 10.9299H10.8316ZM16.502 10.9299C16.6574 10.929 16.8116 10.9589 16.9555 11.0177C17.0994 11.0766 17.2304 11.1634 17.3407 11.273C17.4511 11.3826 17.5388 11.513 17.5987 11.6566C17.6587 11.8002 17.6897 11.9543 17.6901 12.11C17.6904 12.2661 17.6599 12.4207 17.6003 12.565C17.5406 12.7092 17.4531 12.8402 17.3426 12.9504C17.2322 13.0606 17.101 13.1478 16.9567 13.2071C16.8125 13.2663 16.6579 13.2963 16.502 13.2954C16.3467 13.2952 16.193 13.2644 16.0496 13.2047C15.9063 13.1451 15.7761 13.0577 15.6665 12.9476C15.5569 12.8375 15.47 12.7068 15.4109 12.5631C15.3518 12.4194 15.3215 12.2654 15.3219 12.11C15.3226 11.797 15.4472 11.497 15.6684 11.2758C15.8896 11.0546 16.1893 10.9302 16.502 10.9299Z" fill="#363636"/>
</svg>
