<svg width="82" height="82" viewBox="0 0 82 82" fill="none" xmlns="http://www.w3.org/2000/svg">
<path d="M40.1727 10.7349C40.2891 9.75504 41.7109 9.75504 41.8273 10.7349L42.8026 18.955C44.0621 29.5693 52.4307 37.9379 63.0449 39.1974L71.265 40.1727C72.245 40.2891 72.245 41.7109 71.265 41.8273L63.0449 42.8026C52.4307 44.0621 44.0621 52.4307 42.8026 63.0449L41.8273 71.265C41.7109 72.245 40.2891 72.245 40.1727 71.265L39.1974 63.0449C37.9379 52.4307 29.5693 44.0621 18.955 42.8026L10.7349 41.8273C9.75504 41.7109 9.75504 40.2891 10.7349 40.1727L18.955 39.1974C29.5693 37.9379 37.9379 29.5693 39.1974 18.955L40.1727 10.7349Z" fill="#B0D7B0"/>
</svg>
