<svg xmlns="http://www.w3.org/2000/svg" version="1.1" xmlns:xlink="http://www.w3.org/1999/xlink" width="512" height="512" x="0" y="0" viewBox="0 0 64 64" style="enable-background:new 0 0 512 512" xml:space="preserve"><g><path d="M27.59 51.85c-.12 0-.25-.02-.37-.07-.43-.17-.69-.62-.62-1.09l2.54-16.01h-7.65a1 1 0 0 1-.82-1.58L35.1 12.56c.26-.38.75-.52 1.18-.36s.69.6.63 1.05l-1.82 14.87h7.43c.37 0 .71.21.88.53s.15.73-.06 1.03L28.41 51.4c-.19.28-.5.43-.82.43zm-4.18-19.16h6.9c.29 0 .57.13.76.35s.27.52.23.81l-2.03 12.8 11.35-16.51h-6.66c-.29 0-.56-.12-.75-.34s-.28-.5-.24-.78L34.44 17 23.41 32.7z" fill="#000000" opacity="1" data-original="#000000"></path><path d="M35.36 63h-6.71a1 1 0 0 1-1-.91l-.52-5.57c-3.2-.64-6.29-1.92-9.01-3.74l-4.31 3.57c-.4.33-.98.3-1.34-.06l-4.75-4.75a1 1 0 0 1-.06-1.35l3.57-4.31c-1.82-2.72-3.1-5.81-3.74-9.02l-5.58-.52c-.51-.05-.91-.48-.91-1v-6.71a1 1 0 0 1 .91-1l5.58-.52c.64-3.2 1.92-6.29 3.74-9.01l-3.57-4.31c-.33-.4-.3-.98.06-1.35l4.75-4.75c.37-.37.95-.39 1.34-.06l4.31 3.57c2.72-1.82 5.81-3.1 9.01-3.74l.52-5.57c.05-.51.48-.91 1-.91h6.71a1 1 0 0 1 1 .91l.52 5.57c3.2.64 6.29 1.92 9.01 3.74l4.31-3.57c.4-.33.98-.3 1.34.06l4.75 4.75a1 1 0 0 1 .06 1.35l-3.57 4.31c1.82 2.72 3.1 5.81 3.74 9.01l5.58.52c.51.05.91.48.91 1v6.71a1 1 0 0 1-.91 1l-5.58.52c-.64 3.2-1.92 6.29-3.74 9.02l3.57 4.31c.33.4.3.98-.06 1.35l-4.75 4.75c-.37.37-.95.39-1.34.06l-4.31-3.57c-2.72 1.82-5.81 3.1-9.01 3.74l-.52 5.57c-.05.51-.48.91-1 .91zm-5.8-2h4.89l.51-5.42c.04-.45.38-.82.83-.89a23.06 23.06 0 0 0 9.58-3.97c.37-.26.87-.25 1.22.04l4.2 3.48 3.46-3.46-3.48-4.2a.991.991 0 0 1-.04-1.22 23.06 23.06 0 0 0 3.97-9.58c.07-.45.44-.79.89-.83l5.42-.51v-4.89l-5.42-.51a.988.988 0 0 1-.89-.83 23.06 23.06 0 0 0-3.97-9.58c-.26-.37-.25-.87.04-1.22l3.48-4.2-3.46-3.46-4.2 3.48c-.35.29-.85.31-1.22.04a23.06 23.06 0 0 0-9.58-3.97.988.988 0 0 1-.83-.89l-.51-5.42h-4.89l-.51 5.42c-.04.45-.38.82-.83.89a23.06 23.06 0 0 0-9.58 3.97c-.37.26-.87.25-1.22-.04l-4.2-3.48-3.46 3.46 3.48 4.2c.29.35.31.85.04 1.22a23.06 23.06 0 0 0-3.97 9.58c-.07.45-.44.79-.89.83L3 29.55v4.89l5.42.51c.45.04.82.38.89.83a23.06 23.06 0 0 0 3.97 9.58c.26.37.25.87-.04 1.22l-3.48 4.2 3.46 3.46 4.2-3.48c.35-.29.85-.31 1.22-.04a23.06 23.06 0 0 0 9.58 3.97c.45.07.79.44.83.89z" fill="#000000" opacity="1" data-original="#000000"></path><path d="m35.82 47.88-.47-1.95c6.47-1.55 10.98-7.28 10.98-13.94 0-5.17-2.81-9.97-7.32-12.5l.98-1.74c5.14 2.89 8.34 8.35 8.34 14.25 0 7.59-5.15 14.12-12.51 15.88zM20.45 43.55A16.24 16.24 0 0 1 15.67 32c0-7.25 4.87-13.71 11.83-15.71l.55 1.92c-6.11 1.75-10.38 7.42-10.38 13.78 0 3.83 1.49 7.43 4.2 10.14l-1.41 1.41z" fill="#000000" opacity="1" data-original="#000000"></path></g></svg>